<?xml version="1.0" standalone="no"?>
<!DOCTYPE svg PUBLIC "-//W3C//DTD SVG 20010904//EN"
 "http://www.w3.org/TR/2001/REC-SVG-20010904/DTD/svg10.dtd">
<svg version="1.0" xmlns="http://www.w3.org/2000/svg"
 width="260.000000pt" height="260.000000pt" viewBox="0 0 260.000000 260.000000"
 preserveAspectRatio="xMidYMid meet">
<metadata>
Created by potrace 1.11, written by Peter Selinger 2001-2013
</metadata>
<g transform="translate(0.000000,260.000000) scale(0.100000,-0.100000)"
fill="#000000" stroke="none">
<path d="M134 2290 c-11 -4 -33 -22 -47 -40 -21 -25 -27 -42 -27 -79 0 -45 9
-62 123 -237 68 -104 155 -236 193 -294 39 -58 96 -144 127 -192 l56 -86 -256
-419 c-140 -230 -261 -430 -269 -445 -8 -15 -14 -48 -14 -73 0 -38 6 -52 34
-83 l34 -37 479 -3 c462 -2 479 -2 510 18 26 15 50 55 118 191 48 94 89 168
93 165 4 -4 43 -80 87 -169 64 -129 87 -166 114 -185 l35 -23 494 3 494 3 34
37 c28 31 34 45 34 83 0 25 -7 59 -15 76 -9 16 -131 219 -271 450 -158 261
-253 427 -249 437 3 8 99 168 214 356 114 188 213 351 220 363 6 12 11 42 11
67 0 39 -6 52 -34 84 l-34 37 -444 3 c-244 2 -457 0 -474 -3 -50 -9 -77 -46
-140 -186 l-58 -131 -18 38 c-105 230 -117 251 -151 268 -31 14 -90 16 -509
15 -260 0 -482 -4 -494 -9z m1051 -373 c61 -137 115 -250 119 -250 5 -1 59
111 120 248 l112 250 412 3 c228 1 411 -1 409 -5 -2 -5 -111 -183 -242 -396
l-237 -388 268 -447 c147 -246 274 -457 282 -469 l14 -23 -441 0 -440 0 -136
277 -136 278 -142 -278 -141 -277 -424 0 c-233 0 -421 3 -419 7 13 21 386 637
462 763 49 80 88 150 88 155 0 6 -115 183 -255 395 -140 212 -258 391 -262
398 -6 10 81 12 436 10 l442 -3 111 -248z"/>
</g>
</svg>
